<svg width="1728" height="1377" viewBox="0 0 1728 1377" fill="none" xmlns="http://www.w3.org/2000/svg">
<g clip-path="url(#clip0_13_32)">
<mask id="mask0_13_32" style="mask-type:luminance" maskUnits="userSpaceOnUse" x="0" y="0" width="1728" height="1377">
<path d="M0 0H1728V1377H0V0Z" fill="white"/>
</mask>
<g mask="url(#mask0_13_32)">
<path d="M1727.5 0.5V1376.5H0.5V0.5H1727.5Z" stroke="#8B5CF6"/>
<path d="M1193.47 894.1C1211.55 917.4 1224.78 955.09 1200.43 979.14C1168.18 1010.92 1119.93 1011.1 1111.96 1065.96C1104.38 1128.08 1143.97 1182.32 1160.09 1239.95C1186.03 1313.47 1145.32 1395.89 1060.84 1392.08C982.8 1390.48 924.86 1331.83 858.94 1298.12C795.42 1263.94 723.82 1237.35 676.52 1180.41C632.8 1124.8 617.75 1042.37 645.33 976.47C674.95 909.65 756.46 919.94 816.83 921.18C887.62 922.92 954.86 883.56 985.88 819.51C1004.36 780.45 1024.69 732.75 1073.81 769.49C1105.69 794.45 1131.86 825.7 1160.09 854.53C1171.61 866.83 1183.33 879.02 1193.39 894.11L1193.47 894.09V894.1ZM775.61 1097.39C826.34 1172.98 1078.86 1319.63 1062.41 1131.58C1055.63 1074.4 1054.97 1031.85 1095.55 986.44C1123.01 955.75 1128.56 906.92 1091.03 881.8C1022.38 841.5 993.97 979.05 824.2 975.57C808.55 976.31 793.09 978.08 778.46 984.28C730.15 1006.18 750.12 1063.51 775.61 1097.4V1097.38V1097.39ZM358.67 192.19C337.09 185.28 224.79 178.01 249.59 141.53C279.23 105.85 313.44 85.07 306.73 34.92C302.72 -0.800003 266.88 -24.45 258.86 -58.67C249.91 -109.6 318.27 -131.69 358.61 -141.28C398.46 -150.86 440.92 -147.76 478.61 -133.55C513.68 -120.58 544.39 -102.49 577.27 -85.86C624.12 -59.21 722.06 -43.78 721.29 23.26C702.14 97.46 597.11 81.76 537.73 94.39C497.46 101.52 464.88 115.5 466.54 161.04C461.31 211.22 393.17 198.88 358.68 192.19H358.67ZM365.57 -70.73C330.56 -65.78 313.46 -44.02 333.86 -12.45C346.99 8.19999 356.57 31.25 354.84 55.99C354.2 69.74 351.05 83.31 345.95 96.79C341.83 108.39 335.75 120.68 339.03 132.98C345.59 153.04 373.34 156.07 392.42 151.28C438.67 139.8 432.04 94.39 487.77 76.82C512.76 66.85 541.84 62.78 563.38 45.89C586.17 28.07 574.09 3.77 555.25 -10.33C502.34 -49.11 432.21 -78.94 365.55 -70.74V-70.72L365.57 -70.73Z" stroke="#8B5CF6"/>
<path d="M824.24 345.72C826.84 415.74 798.9 488.69 717.41 486.84C683.15 487.62 649.79 478.84 615.75 476.82C567.55 474.05 519.92 484.32 471.97 487.4C335.69 499.89 197 403.85 165.06 269.98C157.63 242.78 166.99 209.57 194.24 197.45C294.16 154.62 383.24 320.61 533.2 193.38C554.82 173.61 572.98 150.15 597.44 133.59C648.67 100.28 724 99.42 772.49 138.27C810.54 172.3 811.32 228.38 818.45 275.45C821.78 298.47 824.27 321.59 824.25 345.74V345.7L824.24 345.72ZM683.69 427.53C812.88 438.68 768.57 139.45 630.95 193.37C550.83 230.76 530.99 291.07 425.94 294.75C402.9 296.7 378.89 295.13 357.24 304.54C283.79 345.33 377.81 425.47 431.16 426.89C474.64 432.47 518.37 425.47 561.76 422.29C602.7 417.52 643.01 424.19 683.69 427.49L683.67 427.53H683.69ZM1696.78 118.99C1674.43 171.17 1651.17 228.59 1583.63 222.61C1549.03 220.04 1514.12 205.44 1491.77 178.23C1476.57 159.64 1467.84 137.18 1455.6 116.76C1425.55 62.65 1361.46 36.66 1301.5 47.78C1272.8 51.55 1242.81 57.33 1214.6 47.8C1180.77 37.66 1167.96 1.52001 1186.68 -28.24C1242.59 -125.11 1372.82 -167.72 1476.07 -126.42C1494.44 -119.42 1512.54 -111.67 1530.58 -103.82C1548.43 -96.05 1566.67 -89.47 1585.56 -84.85C1612.54 -78.54 1640.56 -77.64 1667.06 -69.08C1756.02 -43.89 1726.58 57.82 1696.74 118.96L1696.78 118.98V118.99ZM1600.43 -35.85C1517.95 -43.54 1433.3 -125.39 1352.68 -71.69C1331.38 -58.17 1321.76 -27.77 1344.41 -10.56C1359.09 1.76 1378.15 6.14 1395.65 13C1427.66 24.22 1457.16 43.53 1476.74 71.6C1501.64 104.15 1523.47 150.82 1569.58 154.11C1630.26 154.05 1665.99 82.95 1669.65 29.61C1673.34 -15.99 1640.49 -32.13 1600.43 -35.82V-35.84V-35.85ZM1817.81 1031.58C1838.86 1098.92 1831.91 1175.59 1752.5 1196.07C1719.68 1205.96 1685.2 1206.42 1651.83 1213.53C1604.63 1223.71 1561.49 1246.34 1516.09 1262.08C1388.05 1310.48 1228.8 1254.89 1162.28 1134.4C1147.88 1110.16 1148.04 1075.67 1171.05 1056.72C1255.81 988.8 1386.15 1124.97 1496.59 962.37C1512.17 937.55 1523.41 910.09 1542.57 887.59C1583.03 841.81 1655.45 820.9 1712.52 845.42C1758.29 868.08 1773.95 921.91 1793.42 965.38C1802.76 986.69 1811.33 1008.29 1817.75 1031.57L1817.81 1031.59V1031.58ZM1704.19 1147.92C1831.68 1124.08 1709.08 847.61 1590.9 936.3C1523.67 993.7 1520.62 1057.15 1420.38 1088.7C1398.71 1096.72 1375.13 1101.62 1356.78 1116.45C1296.88 1175.34 1408.87 1227.54 1460.66 1214.66C1504.04 1208.44 1544.34 1190.03 1585.28 1175.38C1623.49 1159.85 1664.11 1155.54 1704.19 1147.88V1147.92ZM864.16 840.69C828.84 909.35 733.54 899.36 739.34 840.73C737.24 809.29 744.73 780.16 758.53 752.22C775.53 717.23 798.59 685.7 817.12 651.55C843.77 604.72 850.8 551.06 859.63 498.8C870.2 424.37 912.34 360.51 951.45 298.08C1003.12 212.75 1080.6 210.97 1158.11 264.64C1229.18 316.13 1360.35 434.56 1376.8 521.16C1389.51 585.05 1339.21 640.15 1282.49 661.01C1223.44 683.45 1159.04 681.72 1097.46 692.18C1004.2 707.19 916.06 761.64 864.13 840.68H864.15L864.16 840.69ZM910.74 620.78C908.65 646.65 923.01 668.08 951.02 662.04C972.14 657.64 989.61 644.18 1008.46 634.46C1072.18 596.83 1147.5 598.04 1218.78 590.71C1406.35 563.9 1210.08 334.75 1106.7 327.59C980.38 307.79 923.19 525.54 910.72 620.8L910.74 620.78Z" stroke="#8B5CF6"/>
<path d="M1725.53 316.18C1777.13 362.88 1811.97 428.07 1799.75 519.43C1794.66 585.17 1771.99 653.94 1716.96 694.3C1660.15 739.39 1568.64 745.84 1518 688.12C1481.72 648.14 1465.73 594.95 1445.55 545.92C1394.01 391.7 1320.54 207.51 1138.32 181.8C1080.14 151.68 1176.25 111.43 1243.8 102.87C1337.79 90.49 1362.5 104.33 1393.61 156.8C1463.8 320.87 1606.38 237.69 1725.45 316.21L1725.53 316.19V316.18ZM1498.01 535.45C1584.05 767.65 1788.09 517.13 1655.84 368.95C1618.12 319.36 1553.56 330.26 1498.83 326.34C1443.81 322.38 1407.66 285.33 1376.65 243.42C1336.35 195.3 1320.55 230.08 1350.1 271.4C1433.82 377.94 1456.68 403.06 1498.01 535.44V535.45ZM1069.13 57.29C1068.57 119.35 1017.81 168.22 978.41 211.35C918.48 269.97 875.64 219.19 843.38 163.69C797.64 94.09 737.68 53.82 823.05 -18.39C864.51 -52.58 900.4 -97.74 951.4 -117.77C1049.18 -145.58 1063.31 -10.56 1069.13 57.28V57.29ZM1007.4 68.89C1005.6 21.46 1004.34 -72.72 931.86 -33.81C885.2 -4.01 832.63 35.26 881.1 90.87C900.86 112.64 919.43 138.42 946.79 150.88C995.37 168.77 1008.67 104.22 1007.4 68.88V68.89ZM112.78 118.99C90.43 171.18 67.17 228.59 -0.369995 222.61C-34.96 220.04 -69.87 205.44 -92.23 178.23C-107.43 159.64 -116.16 137.19 -128.4 116.76C-158.44 62.65 -222.54 36.66 -282.5 47.78C-311.2 51.55 -341.19 57.33 -369.4 47.8C-403.23 37.66 -416.04 1.52001 -397.32 -28.24C-341.4 -125.1 -211.19 -167.72 -107.93 -126.42C-89.55 -119.42 -71.46 -111.67 -53.42 -103.82C-35.56 -96.05 -17.33 -89.47 1.57001 -84.85C28.55 -78.54 56.57 -77.64 83.07 -69.08C172.03 -43.9 142.6 57.83 112.75 118.96L112.79 118.98L112.78 118.99ZM16.43 -35.85C-66.07 -43.54 -150.69 -125.39 -231.33 -71.69C-252.62 -58.17 -262.25 -27.77 -239.6 -10.56C-224.92 1.76 -205.86 6.14 -188.36 13C-156.34 24.22 -126.85 43.53 -107.26 71.6C-82.37 104.15 -60.53 150.82 -14.42 154.11C46.26 154.05 82 82.96 85.65 29.61C89.34 -15.99 56.49 -32.13 16.43 -35.82V-35.84V-35.85ZM58.91 315.58C105.05 357.27 136.18 415.43 125.27 497C120.7 555.7 100.43 617.07 51.25 653.08C0.450001 693.32 -81.34 699.09 -126.65 647.56C-159.07 611.88 -173.39 564.41 -191.43 520.64C-236.77 385.07 -304.55 215.8 -466.13 195.63C-518.04 170.64 -433.39 132.22 -371.82 125.19C-287.29 114.29 -266.16 126.17 -237.87 173.32C-175.13 319.76 -47.57 245.53 58.83 315.6L58.9 315.58H58.91ZM-144.52 511.3C-67.62 718.52 114.85 495 -3.41 362.68C-37.15 318.41 -94.87 328.15 -143.8 324.65C-192.65 321.28 -225.54 287.89 -253.03 250.64C-289.02 207.72 -303.23 238.68 -276.77 275.62C-201.77 370.96 -181.63 392.81 -144.53 511.29L-144.52 511.3ZM1479.49 880.93C1507.89 828.54 1487.47 768.98 1474.71 715.41C1463.48 671.06 1424.6 631.58 1376.19 649.26C1325.19 669.28 1289.31 714.45 1247.84 748.63C1158.39 823.89 1228.99 866.18 1273.05 938.38C1304.44 992.6 1347.69 1033.13 1403.2 978.37C1431.97 948.86 1459.62 917.24 1479.49 880.93ZM1426.06 768.5C1431.21 811.67 1441.46 868.38 1414.9 906.02C1376.86 949.91 1331.29 885.76 1305.9 857.89C1257.44 802.28 1310 762.98 1356.66 733.2C1391.44 712.29 1420.49 729.9 1426.06 768.5ZM629.74 1197.79C541.28 1151.41 428.23 1115.72 329.81 1147.87C273.18 1167.46 255.73 1227.87 228.55 1274.78C213.86 1299.06 193.83 1318.58 202.62 1342.56C226 1380.33 279.95 1346.42 312.54 1336.83C444.88 1284.85 548.16 1373.47 640.48 1335.48C698.71 1302.28 683.56 1228.12 629.74 1197.84V1197.79ZM586.79 1277.96C491.32 1260.12 385.53 1235 297.77 1290.96C201.64 1327.97 322.77 1211.38 352.14 1206.46C423.67 1182.56 509.22 1204.11 580.26 1225.34C613.69 1235.4 646.78 1281.81 586.8 1277.97L586.79 1277.96ZM217.69 537.92C239.05 517.6 275.22 500.6 301.6 522.43C336.45 551.31 341.5 599.35 396.89 601.74C459.46 603.04 509.44 558.18 565.17 536.36C635.71 503.15 721.81 535.38 726.5 619.82C732.77 697.63 680.22 761.13 653.33 830.12C625.69 896.76 606.47 970.67 554.56 1023.44C503.62 1072.53 423.14 1095.78 354.79 1074.98C285.32 1052.22 287.35 970.1 282.55 909.89C277.14 839.27 231.28 776.33 164.39 751.9C123.66 737.41 74.19 722 105.78 669.41C127.42 635.19 155.83 605.99 181.69 575.02C192.77 562.32 203.72 549.45 217.72 537.91L217.68 537.93L217.69 537.92ZM461.96 933.22C532.07 875.13 652.6 609.2 467.13 644.41C410.96 656.9 368.62 661.85 319.39 626.03C286.06 601.8 236.97 601.21 215.75 641.09C182.59 713.44 322.23 727.86 335.86 897.12C338.16 912.62 341.5 927.81 349.12 941.75C375.79 987.6 430.76 961.98 461.93 933.23H461.97L461.96 933.22ZM233.81 1031.58C254.85 1098.92 247.92 1175.58 168.5 1196.07C135.68 1205.96 101.2 1206.42 67.83 1213.53C20.63 1223.71 -22.52 1246.34 -67.92 1262.08C-195.95 1310.48 -355.21 1254.89 -421.72 1134.4C-436.13 1110.16 -435.97 1075.67 -412.95 1056.72C-328.19 988.8 -197.86 1124.97 -87.41 962.37C-71.84 937.54 -60.59 910.09 -41.43 887.59C-0.969994 841.81 71.45 820.9 128.52 845.42C174.28 868.08 189.95 921.91 209.42 965.38C218.77 986.69 227.34 1008.29 233.75 1031.57L233.81 1031.59V1031.58ZM120.19 1147.92C247.68 1124.08 125.08 847.6 6.91 936.3C-60.33 993.68 -63.37 1057.15 -163.62 1088.7C-185.29 1096.72 -208.86 1101.62 -227.22 1116.45C-287.13 1175.34 -175.13 1227.55 -123.34 1214.66C-79.96 1208.44 -39.66 1190.03 1.29001 1175.38C39.49 1159.85 80.11 1155.54 120.19 1147.88V1147.92Z" stroke="#8B5CF6"/>
</g>
</g>
<defs>
<clipPath id="clip0_13_32">
<rect width="1728" height="1377" fill="white"/>
</clipPath>
</defs>
</svg>
