<svg width="100" height="100" viewBox="0 0 100 100" fill="none" xmlns="http://www.w3.org/2000/svg">
<path d="M89.7998 2.41803C94.5515 -1.2278 102.763 -1.3903 99.0752 6.42637C94.4039 16.3347 86.2684 24.8055 81.253 35.0305C80.4618 36.7055 80.3322 38.5889 80.8775 40.343L93.9659 84.3014C94.2341 85.2055 93.6351 85.943 92.6293 85.943H83.5998C80.6004 85.943 77.5428 83.7597 76.7606 81.0597L76.2376 79.2305C76.023 78.468 76.1348 77.6514 76.546 76.9597C78.9286 72.9097 80.5467 68.5097 81.329 63.9472C81.4184 63.4389 80.6004 63.293 80.4081 63.7764C75.4732 76.218 63.3503 85.6764 47.6693 86.4764C45.5505 86.5847 35.7968 86.5555 36.1142 83.718C39.583 79.8014 42.2963 76.4764 43.2037 76.218C54.9287 72.8514 65.9609 70.3847 69.908 57.618C71.9776 50.9097 70.2521 45.9597 68.6697 39.5347C68.4686 38.718 68.6161 37.8597 69.081 37.1389C74.977 28.0472 82.0218 21.5472 88.271 13.3055C88.8745 12.5055 87.9134 11.7639 87.1758 12.4597C61.8484 36.1555 46.2389 66.1055 19.5347 88.8722C16.5845 91.3847 13.1872 94.3722 9.96427 96.5014C-9.26151 109.272 4.81922 83.4805 7.23753 76.6847C7.96168 74.6555 10.7465 67.1514 10.7287 65.7055C10.6929 62.968 9.10602 61.4014 8.48021 58.9055C2.50819 34.9347 20.9204 12.543 47.2268 14.4305C53.248 14.868 62.9525 19.318 68.3032 17.9389C74.2305 16.4264 84.3686 6.58887 89.7998 2.41803ZM62.0853 32.8222C57.9952 27.9055 48.4963 25.0972 42.0505 25.8555C19.6464 28.4722 11.3902 53.2305 27.6166 68.3264C29.8561 70.4097 64.4634 35.6805 62.0853 32.8222Z" fill="url(#paint0_linear_32_3)"/>
<defs>
<linearGradient id="paint0_linear_32_3" x1="88" y1="10.5012" x2="3.74246e-06" y2="100.001" gradientUnits="userSpaceOnUse">
<stop stop-color="#FD4802"/>
<stop offset="1" stop-color="#F98401"/>
</linearGradient>
</defs>
</svg>
