<svg width="277" height="210" viewBox="0 0 277 210" fill="none" xmlns="http://www.w3.org/2000/svg">
<path fill-rule="evenodd" clip-rule="evenodd" d="M239.419 2.13672C241.966 4.13972 242.054 4.55972 242.054 14.6687C242.054 32.7307 244.132 35.0637 260.221 35.0637C270.112 35.0637 271.16 35.2507 273.748 37.4767L276.554 39.8897L276.826 103.985C277.122 173.988 277.203 172.916 271.441 175.107C270.057 175.633 264.553 176.064 259.211 176.064C244.477 176.064 242.054 178.803 242.054 195.459C242.054 210.693 254.507 209.064 138.03 209.064C42.7034 209.064 39.1954 208.998 36.9434 207.175C34.8284 205.462 34.5534 204.228 33.9904 193.925C33.6494 187.677 33.0364 181.803 32.6284 180.874C30.9944 177.152 27.4914 176.064 17.1364 176.064C6.17943 176.064 2.84343 175.091 1.16443 171.407C-0.494572 167.764 -0.330575 41.1487 1.33643 38.9767C3.68843 35.9137 6.96843 35.0637 16.4414 35.0637C21.6764 35.0637 27.0844 34.5517 28.4594 33.9247C32.7084 31.9887 34.0544 27.4937 34.0544 15.2347C34.0544 -1.84528 20.9674 0.0637191 138.054 0.0637191C236.423 0.0637191 236.794 0.071717 239.419 2.13672ZM43.5544 40.9057C37.6954 44.4877 37.9864 40.8997 38.2814 105.922L38.5544 166.019L41.3274 168.792L44.0994 171.564L136.827 171.831C205.169 172.027 230.288 171.793 232.344 170.943C238.277 168.488 238.054 171.029 238.054 105.776C238.054 66.6437 237.698 45.2667 237.024 44.0087C234.306 38.9287 236.992 39.0637 138.354 39.0677C51.0814 39.0707 46.4064 39.1617 43.5544 40.9057Z" fill="#8B5CF6"/>
<path fill-rule="evenodd" clip-rule="evenodd" d="M239.419 2.13672C241.966 4.13972 242.054 4.55972 242.054 14.6687C242.054 32.7307 244.132 35.0637 260.221 35.0637C270.112 35.0637 271.16 35.2507 273.748 37.4767L276.554 39.8897L276.826 103.985C277.122 173.988 277.203 172.916 271.441 175.107C270.057 175.633 264.553 176.064 259.211 176.064C244.477 176.064 242.054 178.803 242.054 195.459C242.054 210.693 254.507 209.064 138.03 209.064C42.7034 209.064 39.1954 208.998 36.9434 207.175C34.8284 205.462 34.5534 204.228 33.9904 193.925C33.6494 187.677 33.0364 181.803 32.6284 180.874C30.9944 177.152 27.4914 176.064 17.1364 176.064C6.17943 176.064 2.84343 175.091 1.16443 171.407C-0.494572 167.764 -0.330575 41.1487 1.33643 38.9767C3.68843 35.9137 6.96843 35.0637 16.4414 35.0637C21.6764 35.0637 27.0844 34.5517 28.4594 33.9247C32.7084 31.9887 34.0544 27.4937 34.0544 15.2347C34.0544 -1.84528 20.9674 0.0637191 138.054 0.0637191C236.423 0.0637191 236.794 0.071717 239.419 2.13672ZM43.5544 40.9057C37.6954 44.4877 37.9864 40.8997 38.2814 105.922L38.5544 166.019L41.3274 168.792L44.0994 171.564L136.827 171.831C205.169 172.027 230.288 171.793 232.344 170.943C238.277 168.488 238.054 171.029 238.054 105.776C238.054 66.6437 237.698 45.2667 237.024 44.0087C234.306 38.9287 236.992 39.0637 138.354 39.0677C51.0814 39.0707 46.4064 39.1617 43.5544 40.9057Z" fill="#8B5CF6"/>
</svg>
